/* XPM */
static char *_abdaf09286c4e0183b167fb19bafe6dXQls4LDUsjSM918Z[] = {
/* columns rows colors chars-per-pixel */
"32 32 3 1 ",
"  c #A70077",
". c #0000AB",
"X c yellow",
/* pixels */
"................................",
".XXXXXXXXXXXXXXXXXXXXXXXXXXXXXX.",
".XXXXXXXXXXXXXXXXXXXXXXXXXXXXXX.",
".XXXXXXXXXXXXXXXXXXXXXXXXXXXXXX.",
".XXXXXXXXXXXXXXXXXXXXXXXXXXXXXX.",
".XXXXXXXXXXXXXXXXXXXXXXXXXXXXXX.",
".XXXXXXXXXXXXXXXXXXXXXXXXXXXXXX.",
".XXXXXXXXXXXXXXXXXXXXXXXXXXXXXX.",
".XXXXXXXXXXXXXXXXXXXXXXXXXXXXXX.",
".XXXXXXXXXXXXXXXXXXXXXXXXXXXXXX.",
".XXXXXXXXXXXXXX  XXXXXXXXXXXXXX.",
".XXXXXXXXXXXXXX  XXXXXXXXXXXXXX.",
".XXXXXXXXXXXXXXXXXXXXXXXXXXXXXX.",
".XXXXXXXXXXXXXX  XXXXXXXXXXXXXX.",
".XXXXXXXXXXXXXX  XXXXXXXXXXXXXX.",
".XXXXXXXXXXXXXX  XXXXXXXXXXXXXX.",
".XXXXXXXXXXXXXX  XXXXXXXXXXXXXX.",
".XXXXXXXXXXXXXX  XXXXXXXXXXXXXX.",
".XXXXXXXXXXXXXX  XXXXXXXXXXXXXX.",
".XXXXXXXXXXXXXX  XXXXXXXXXXXXXX.",
".XXXXXXXXXXXXXX  XXXXXXXXXXXXXX.",
".XXXXXXXXXXXXXX  XXXXXXXXXXXXXX.",
".XXXXXXXXXXXXXX  XXXXXXXXXXXXXX.",
".XXXXXXXXXXXXXX  XXXXXXXXXXXXXX.",
".XXXXXXXXXXXXXXXXXXXXXXXXXXXXXX.",
".XXXXXXXXXXXXXXXXXXXXXXXXXXXXXX.",
".XXXXXXXXXXXXXXXXXXXXXXXXXXXXXX.",
".XXXXXXXXXXXXXXXXXXXXXXXXXXXXXX.",
".XXXXXXXXXXXXXXXXXXXXXXXXXXXXXX.",
".XXXXXXXXXXXXXXXXXXXXXXXXXXXXXX.",
".XXXXXXXXXXXXXXXXXXXXXXXXXXXXXX.",
"................................"
};
