/* XPM */
static char *_abdaf09286c4e0183b167fb19bafe6dXQls4LDUsjSM918Z[] = {
/* columns rows colors chars-per-pixel */
"32 32 3 1 ",
"  c #A70077",
". c #0000AB",
"X c red",
/* pixels */
"................................",
".XXXXXXXXXXXXXXXXXXXXXXXXXXXXXX.",
".XXXXXXXXXXXXXXXXXXXXXXXXXXXXXX.",
".XXXXXXXXXXXXXXXXXXXXXXXXXXXXXX.",
".XXXXXXXXXXXXXXXXXXXXXXXXXXXXXX.",
".XXXXXXXXXXXXXXXXXXXXXXXXXXXXXX.",
".XXXXXXXXXXXXXXXXXXXXXXXXXXXXXX.",
".XXXXXXXXXXXXXXXXXXXXXXXXXXXXXX.",
".XXXXXXXX              XXXXXXXX.",
".XXXXXXXX              XXXXXXXX.",
".XXXXXXXX  XXXXXXXXXXXX  XXXXXX.",
".XXXXXXXX  XXXXXXXXXXXXXX  XXXX.",
".XXXXXXXX  XXXXXXXXXXXXXX  XXXX.",
".XXXXXXXX  XXXXXXXXXXXXXX  XXXX.",
".XXXXXXXX  XXXXXXXXXXXX  XXXXXX.",
".XXXXXXXX              XXXXXXXX.",
".XXXXXXXX              XXXXXXXX.",
".XXXXXXXX  XXXXXXXXXXXXXXXXXXXX.",
".XXXXXXXX  XXXXXXXXXXXXXXXXXXXX.",
".XXXXXXXX  XXXXXXXXXXXXXXXXXXXX.",
".XXXXXXXX  XXXXXXXXXXXXXXXXXXXX.",
".XXXXXXXX  XXXXXXXXXXXXXXXXXXXX.",
".XXXXXXXX  XXXXXXXXXXXXXXXXXXXX.",
".XXXXXXXX  XXXXXXXXXXXXXXXXXXXX.",
".XXXXXXXX  XXXXXXXXXXXXXXXXXXXX.",
".XXXXXXXXXXXXXXXXXXXXXXXXXXXXXX.",
".XXXXXXXXXXXXXXXXXXXXXXXXXXXXXX.",
".XXXXXXXXXXXXXXXXXXXXXXXXXXXXXX.",
".XXXXXXXXXXXXXXXXXXXXXXXXXXXXXX.",
".XXXXXXXXXXXXXXXXXXXXXXXXXXXXXX.",
".XXXXXXXXXXXXXXXXXXXXXXXXXXXXXX.",
"................................"
};
