/* XPM */
static char *_2f1c79c8f994b4cb8068a8365683a3f6lmN0UGcn48mPzXH[] = {
/* columns rows colors chars-per-pixel */
"32 32 10 1 ",
"  c #0093C4",
". c black",
"X c #8F0505",
"o c #B32222",
"O c #AC3232",
"+ c #E00000",
"@ c red",
"# c #DB2E2E",
"$ c #FD4242",
"% c white",
/* pixels */
"                                ",
"                                ",
"  %%       %%%%%%%%%%           ",
"  %.%%%%%%%XXoo+$$O+X%%%%%%     ",
"  %.@@oXXXoo$O$$$$$$$$+oXXX%%%% ",
"  %.@$$$$$$$$$$+#++++$$$$+oooX% ",
"  %.o$$++##+$$$$#####@@@$+oooX% ",
"  %.o$$#####$$$$@@####o@$$+ooX% ",
"  %.o$$###o#$$$$#@+###o#@$$+oX% ",
"  %.o$$##@o#$$$$@@++@#o#@$$+oX% ",
"  %.o$$##@o+$$$$@@++@#o##$$+oX% ",
"  %.o$$##@o@$$$#@@++@@##@$$+oX% ",
"  %.+$$##@+o$$$#@@+++@@#@$$+oX% ",
"  %.++$@#@++$$$@@++o++@@@$++oX% ",
"  %.o+$@@@++$$$++++oo+@@@$+ooX% ",
"  %.oo+++++o+$++++ooo++@@++ooX% ",
"  %.oo++++ooo+++++ooXo+++++ooX% ",
"  %.ooo+++ooooooooooXo+++++ooX% ",
"  %.XooooooXXoXXXXXXXXo++ooooX% ",
"  %.XooXXXXXXX%%%%%%XXXooXXXoX% ",
"  %.XXXX%%%%%%      %%%%%%%XXX% ",
"  %.%%%%                   %%%% ",
"  %.                            ",
"  %.                            ",
"  %.                            ",
"  %.                            ",
"  %.                            ",
"  %.                            ",
"  %.                            ",
"  %.                            ",
"  %.                            ",
" %%%                            "
};
