/* XPM */
static char *_89fb8f6d1d2482ac8b4e5cc9dd17c478TBnzIBwklC3ni0V[] = {
/* columns rows colors chars-per-pixel */
"32 32 12 1 ",
"  c #0093C4",
". c black",
"X c #694200",
"o c #7A6756",
"O c #8B5800",
"+ c #AE6E00",
"@ c #A36C0E",
"# c #C37B00",
"$ c #EEC39A",
"% c #D8C7B6",
"& c #DFDFDF",
"* c white",
/* pixels */
"           *                    ",
"           *         *          ",
"          ***        *          ",
"    *      *        ***         ",
"    *      *         *          ",
"   ***               *          ",
"    * ........   *         *    ",
"    *.#O##O##O...*         *    ",
"   .##O###O#@X@@***       ***   ",
"  .##@X@@X@@@X@+@*@..      *    ",
"  .@@@X@@*@@++X@@*@@@..    *    ",
"  .@+O+++*+++@@OO+++@@@.        ",
"  .++O++***+@@@++X@@@++@..      ",
"  .@@X@@@*XX@++++@OO+++*X@.     ",
"  .@@X@@+*++OX@@@@++OOO*X+@.    ",
"  .@@@XX++++@@XO++++@@***+X@.   ",
"   .++++OX@@@@++OOOX@@@*+X@@@.  ",
"   ..++@@@X@@+++++@@XXO*O@@@@X. ",
"  .**.@@@@@XOOXX@@@@++++@@@@X@. ",
"  .***.@@+++++@@XXX@+++XXOOX@@. ",
" .&&&%%..+++++@@@@@OOOX@@@+@@.  ",
" .&&*%%o$..@++@@@@@+++@@@++@..  ",
" .***%%o$$$......+++++@@@...*.  ",
" .***%%%o$$$$$$$$........%&&*.  ",
"  .&&&%%%o$$$$$$$$$$$$o%%%&&.   ",
"  .&***%%%%o$$$$$$$$$o%%*&&&.   ",
"   .**&&%%%%ooooooooo%%&&&&.    ",
"    ..&*&&%%%%%%%%%%%%*&&..     ",
"      ..&**&*&*&*&*&**&..       ",
"        ...&*&*&*&*&...         ",
"           .........            ",
"                                "
};
