/* XPM */
static char *_7e086b00a8e4bd5ff0fda96759c6755bcxelnwOKBwl45lT[] = {
/* columns rows colors chars-per-pixel */
"32 32 6 1 ",
"  c #0093C4",
". c black",
"X c #D2853B",
"o c #D09258",
"O c #CC39B4",
"+ c gray84",
/* pixels */
"     OOOO                       ",
"    OOOOOOO                     ",
"     OOOOOOOO                   ",
"  OOO   OOOOOOO                 ",
"OOOOO     OOOOO                 ",
"OOOOOO      OOO                 ",
"OOOOOO       XO +               ",
"OOOOOO       XX  +              ",
"OOOOOO       XX   +             ",
"OOOOOOO      XX    +            ",
" OOOOOO      XX     +           ",
"   OOOO      XX      +          ",
"    OOO      ..       +         ",
"    OOXX     ..      oo+        ",
"      XXX    ..      o  +  +    ",
"       XXX   ....    o   ++ +   ",
"        X..  .....   o   ++  +  ",
"        ...........   X +  +  + ",
"         ..........   X  +  +  +",
"          .........X  XX  +  +  ",
"           ......XXXX  X   +  + ",
"            .....XXXXX X    +  +",
"              .XXXXXXXXX     +  ",
"               XXXXXXXXXX.      ",
"                XXXXX.XOX... .  ",
"         XX      XXXX..O......  ",
"          XXXX    XXX..O......  ",
"            XXXX XXXX..O......  ",
"              XXXXXXX..OOOOOOO  ",
"                     ..OXXXXXO  ",
"                      .OXX.X.O  ",
"                       OOOOOOO  "
};
