/* XPM */
static char *c35c9e15c39c4ba0858132c8c4c63d9bh0jhsryBadddd6EE[] = {
/* columns rows colors chars-per-pixel */
"32 32 6 1 ",
"  c #0093C4",
". c #1D1D1D",
"X c #323232",
"o c #434343",
"O c #4C4C4C",
"+ c white",
/* pixels */
"                                ",
"                                ",
"            ++++++              ",
"           +OOOOX++             ",
"           +OOOOXXX+            ",
"          +OOOOoXXX+            ",
"          +OOOOoXXX+            ",
"          +OOOooXXX+            ",
"          +OOOooXXX+            ",
"          +OOOooXXX+            ",
"          +OOOooXXXX+           ",
"          +OOoooXXXX+           ",
"     ++++++OOoooXXXX+           ",
"    +oXXXXXOOooooXXX+           ",
"    +ooXXXXOOoooooXX+           ",
"   +oooooXXooooooooo+           ",
"   +oooooo.oooooooooX++         ",
"   +XooooX..oooooo..XXo+        ",
"    +XXoXXOO..ooX.XXXXoo+       ",
"    +XXXXOOOOO.XXXXXXOOoo++     ",
"     +XOOOOOOoo.XXXooOOOOoo+    ",
"    +OOOOOOooooXXXXoooooOOOo++  ",
"   +OOOOOoooooooXXoooooooooooo+ ",
"  +OOOoooooooooXXXXooooooooooo+ ",
" +oOOoooooooooXXXXXXoooooooXXXo+",
"+XooooooooooXXXXXXXXXXXoooXXXXo+",
"+XXXoooooooXXXX++++XXXXXXoXXXX+ ",
"+XXXXoXXXXXXX++    ++++XXXXXXX+ ",
" +XXXXXXXXX++          ++++XX+  ",
"  +XXXXXX++                +++  ",
"   ++++++                       ",
"                                "
};
