/* XPM */
static char *_5b881caf1074e31ffd792660f93aadfpcqjCnA1rohWTwYR[] = {
/* columns rows colors chars-per-pixel */
"32 32 3 1 ",
"  c #008FBF",
". c #0093C4",
"X c #0097C9",
/* pixels */
"................................",
"XXXXXXXXXXXXXXXXXXXXXXXXXXXXXXXX",
"................................",
"XXX.......XXXXXXXX........XXXXXX",
"...XXXXXXXX....XXXXXXXXXXXXXX...",
"XXX.........X................XXX",
"...XXXXXXXXXXXXXXXXXXXXXXXXXX...",
"XXX..........................XXX",
"...XXXXXXXXXXXXXXXXXXXXXXXXXX...",
"XXX..........................XXX",
"...XXXXXXXXXXXXXXXXXXXXXXXXXX...",
"XXX..........................XXX",
"...XXXXXXXXXXXXXXXXXXXXXXXXXX...",
"XXX.........XXX..............XXX",
"...XXXXXXXX.......XXXXXXXX......",
"XXXXX.....XXXXXXXXXXXXXX        ",
"......XX........................",
"       XXXXXXXXXXXXXXX          ",
"...     ........................",
" .........                      ",
".          .....................",
" ..........                     ",
".           .........   ........",
" .............     .......      ",
".         ..   ...         .....",
" ........   ....  .........     ",
".       ...      .         .....",
" ......    ...... .........     ",
".      ...      ...       ......",
"   ............      ...        ",
".........     ..................",
"                                "
};
